Normalized EMG Linear Envelopes
nRows=221
nColumns=4

endheader
time	 med_gas_r	  soleus_r	 tib_ant_r	
3.68726	  0.123928	  0.130967	  0.037273	
3.74976	  0.126866	  0.135261	  0.037749	
3.81226	  0.131037	  0.136765	  0.037864	
3.87475	  0.133685	  0.135379	  0.037875	
3.93725	  0.133761	  0.133460	  0.038119	
3.99974	  0.131120	  0.131088	  0.038886	
4.06224	  0.125768	  0.128670	  0.039628	
4.12474	  0.121742	  0.128223	  0.040113	
4.18723	  0.121618	  0.128826	  0.040668	
4.24973	  0.120713	  0.128769	  0.040654	
4.31222	  0.118979	  0.128010	  0.039959	
4.37472	  0.119032	  0.122624	  0.038153	
4.43722	  0.122703	  0.116864	  0.036353	
4.49971	  0.129924	  0.116697	  0.035229	
4.56221	  0.139158	  0.122687	  0.035121	
4.6247	  0.146364	  0.131059	  0.035263	
4.6872	  0.145643	  0.137797	  0.035100	
4.7497	  0.135862	  0.141914	  0.035615	
4.81219	  0.124713	  0.139147	  0.036972	
4.87469	  0.118167	  0.130355	  0.038281	
4.93718	  0.117889	  0.119972	  0.039553	
4.99968	  0.123450	  0.113369	  0.040612	
5.06218	  0.131807	  0.114653	  0.041598	
5.12467	  0.137993	  0.125012	  0.041779	
5.18717	  0.139056	  0.139976	  0.040941	
5.24966	  0.136526	  0.149898	  0.039313	
5.31216	  0.132156	  0.146392	  0.038404	
5.37466	  0.127802	  0.134145	  0.038497	
5.43715	  0.126518	  0.123224	  0.039587	
5.49965	  0.128609	  0.118935	  0.041644	
5.56214	  0.129322	  0.120040	  0.043438	
5.62464	  0.126725	  0.122333	  0.044176	
5.68714	  0.121420	  0.123849	  0.044035	
5.74963	  0.116165	  0.122999	  0.043454	
5.81213	  0.112502	  0.121279	  0.042653	
5.87462	  0.111987	  0.124555	  0.042322	
5.93712	  0.114542	  0.132810	  0.041778	
5.99962	  0.118858	  0.142058	  0.040371	
6.06211	  0.121952	  0.149949	  0.039286	
6.12461	  0.123637	  0.152891	  0.038487	
6.1871	  0.126360	  0.148156	  0.037311	
6.2496	  0.129956	  0.138404	  0.036471	
6.3121	  0.131239	  0.127979	  0.035843	
6.37459	  0.130732	  0.121441	  0.035142	
6.43709	  0.128729	  0.122797	  0.034531	
6.49958	  0.126139	  0.129955	  0.035287	
6.56208	  0.123874	  0.137863	  0.039429	
6.62458	  0.123022	  0.144828	  0.050137	
6.68707	  0.124169	  0.148630	  0.069951	
6.74957	  0.128913	  0.152305	  0.095351	
6.81206	  0.139612	  0.159932	  0.115311	
6.87456	  0.158780	  0.177809	  0.126409	
6.93706	  0.189464	  0.227113	  0.132712	
6.99955	  0.228767	  0.313562	  0.136603	
7.06205	  0.264665	  0.415010	  0.141618	
7.12454	  0.286993	  0.521098	  0.152369	
7.18704	  0.315315	  0.629910	  0.169993	
7.24954	  0.341657	  0.708872	  0.189450	
7.31203	  0.342811	  0.693565	  0.204407	
7.37453	  0.335368	  0.610409	  0.212147	
7.43702	  0.328595	  0.495296	  0.213554	
7.49952	  0.331870	  0.395196	  0.211421	
7.56202	  0.349366	  0.331106	  0.207554	
7.62451	  0.357917	  0.297447	  0.204279	
7.68701	  0.353151	  0.285840	  0.200310	
7.7495	  0.364004	  0.290442	  0.199966	
7.812	  0.388034	  0.306722	  0.204775	
7.8745	  0.401907	  0.328671	  0.212860	
7.93699	  0.402843	  0.342258	  0.221627	
7.99949	  0.394117	  0.317502	  0.236887	
8.06198	  0.367648	  0.267481	  0.259675	
8.12448	  0.334163	  0.225794	  0.275955	
8.18698	  0.317330	  0.208995	  0.278834	
8.24947	  0.310077	  0.211041	  0.272883	
8.31197	  0.295449	  0.214587	  0.255986	
8.37446	  0.285949	  0.211069	  0.239862	
8.43696	  0.276924	  0.213018	  0.239290	
8.49946	  0.271906	  0.220168	  0.246324	
8.56195	  0.286490	  0.220919	  0.252484	
8.62445	  0.302400	  0.216345	  0.256964	
8.68694	  0.293169	  0.220594	  0.259101	
8.74944	  0.279717	  0.232058	  0.263478	
8.81194	  0.266027	  0.241734	  0.262604	
8.87443	  0.252383	  0.246306	  0.251937	
8.93693	  0.262062	  0.243933	  0.236642	
8.99942	  0.289962	  0.237947	  0.218540	
9.06192	  0.310911	  0.237320	  0.210113	
9.12442	  0.327375	  0.247605	  0.217053	
9.18691	  0.333105	  0.254851	  0.234448	
9.24941	  0.332737	  0.257807	  0.255434	
9.3119	  0.340668	  0.266336	  0.275241	
9.3744	  0.343570	  0.277307	  0.286093	
9.4369	  0.339957	  0.282848	  0.288787	
9.49939	  0.344568	  0.280665	  0.292780	
9.56189	  0.340516	  0.276035	  0.303470	
9.62438	  0.329732	  0.278505	  0.318607	
9.68688	  0.314848	  0.282344	  0.325612	
9.74938	  0.306101	  0.283274	  0.314611	
9.81187	  0.318967	  0.282620	  0.294547	
9.87437	  0.330991	  0.283172	  0.277567	
9.93686	  0.333259	  0.276460	  0.268601	
9.99936	  0.331145	  0.266695	  0.269052	
10.0619	  0.318103	  0.261194	  0.271917	
10.1244	  0.312784	  0.252999	  0.274335	
10.1868	  0.315875	  0.240864	  0.274699	
10.2493	  0.309069	  0.229082	  0.277437	
10.3118	  0.307199	  0.224057	  0.280672	
10.3743	  0.318462	  0.223756	  0.276584	
10.4368	  0.318356	  0.233424	  0.270758	
10.4993	  0.305706	  0.252565	  0.272099	
10.5618	  0.304825	  0.265899	  0.278197	
10.6243	  0.306900	  0.276806	  0.291252	
10.6868	  0.305028	  0.280152	  0.300941	
10.7493	  0.318301	  0.279063	  0.303959	
10.8118	  0.325329	  0.281350	  0.303388	
10.8743	  0.317379	  0.287989	  0.297472	
10.9368	  0.312834	  0.291437	  0.295921	
10.9993	  0.309122	  0.293533	  0.296882	
11.0618	  0.322322	  0.294099	  0.290238	
11.1243	  0.336193	  0.301088	  0.278753	
11.1868	  0.324744	  0.308572	  0.264503	
11.2493	  0.319803	  0.310894	  0.258822	
11.3118	  0.316790	  0.312115	  0.261820	
11.3743	  0.296587	  0.314329	  0.264939	
11.4368	  0.285653	  0.294773	  0.261001	
11.4993	  0.296350	  0.263125	  0.251131	
11.5618	  0.306593	  0.246288	  0.238416	
11.6243	  0.304022	  0.253300	  0.221846	
11.6868	  0.303213	  0.269296	  0.208879	
11.7492	  0.298049	  0.275558	  0.206203	
11.8117	  0.286020	  0.281737	  0.212431	
11.8742	  0.287793	  0.287421	  0.217644	
11.9367	  0.297937	  0.284154	  0.221010	
11.9992	  0.298911	  0.274039	  0.217876	
12.0617	  0.309730	  0.267750	  0.208229	
12.1242	  0.317100	  0.258501	  0.196452	
12.1867	  0.308627	  0.256259	  0.189638	
12.2492	  0.311884	  0.260189	  0.193387	
12.3117	  0.323596	  0.264160	  0.204911	
12.3742	  0.316527	  0.274769	  0.213161	
12.4367	  0.303166	  0.285635	  0.212085	
12.4992	  0.297709	  0.268327	  0.201538	
12.5617	  0.283590	  0.232404	  0.184672	
12.6242	  0.246208	  0.204809	  0.171858	
12.6867	  0.211048	  0.189082	  0.165890	
12.7492	  0.191560	  0.172536	  0.158634	
12.8117	  0.201527	  0.153657	  0.152570	
12.8742	  0.234795	  0.141473	  0.146255	
12.9367	  0.255227	  0.136431	  0.138316	
12.9992	  0.249738	  0.134298	  0.127867	
13.0617	  0.247071	  0.134469	  0.117276	
13.1242	  0.250185	  0.139720	  0.108391	
13.1867	  0.226414	  0.152647	  0.099512	
13.2492	  0.184379	  0.169237	  0.096315	
13.3116	  0.151160	  0.172198	  0.101187	
13.3741	  0.132498	  0.157901	  0.105277	
13.4366	  0.128449	  0.138152	  0.099229	
13.4991	  0.136237	  0.122293	  0.085813	
13.5616	  0.143926	  0.114207	  0.074588	
13.6241	  0.140589	  0.114249	  0.070750	
13.6866	  0.133212	  0.118911	  0.068037	
13.7491	  0.127753	  0.123596	  0.064077	
13.8116	  0.123592	  0.125983	  0.062788	
13.8741	  0.120620	  0.124704	  0.061945	
13.9366	  0.125922	  0.120999	  0.060379	
13.9991	  0.141642	  0.118123	  0.059761	
14.0616	  0.164462	  0.116916	  0.058562	
14.1241	  0.191537	  0.118288	  0.058254	
14.1866	  0.222793	  0.123056	  0.058932	
14.2491	  0.241601	  0.126703	  0.057801	
14.3116	  0.229889	  0.126635	  0.056123	
14.3741	  0.215803	  0.124848	  0.056070	
14.4366	  0.220310	  0.123924	  0.055259	
14.4991	  0.238990	  0.128036	  0.052785	
14.5616	  0.238534	  0.133758	  0.051919	
14.6241	  0.227738	  0.135758	  0.053259	
14.6866	  0.231566	  0.133805	  0.053998	
14.7491	  0.242125	  0.130381	  0.051616	
14.8116	  0.228153	  0.127134	  0.049279	
14.874	  0.199746	  0.123341	  0.049302	
14.9365	  0.184570	  0.117977	  0.049825	
14.999	  0.190499	  0.112846	  0.052294	
15.0615	  0.207311	  0.109285	  0.055036	
15.124	  0.210561	  0.109383	  0.052721	
15.1865	  0.188129	  0.115821	  0.047500	
15.249	  0.170857	  0.127029	  0.042658	
15.3115	  0.175371	  0.136961	  0.039819	
15.374	  0.197587	  0.139458	  0.038949	
15.4365	  0.225456	  0.136311	  0.039498	
15.499	  0.232686	  0.133023	  0.041024	
15.5615	  0.218925	  0.130353	  0.041964	
15.624	  0.216276	  0.127068	  0.042982	
15.6865	  0.233019	  0.123592	  0.044136	
15.749	  0.250780	  0.121115	  0.045233	
15.8115	  0.250407	  0.120600	  0.045467	
15.874	  0.249552	  0.121074	  0.044681	
15.9365	  0.250846	  0.119448	  0.044066	
15.999	  0.235657	  0.115511	  0.042575	
16.0615	  0.226704	  0.114252	  0.039969	
16.124	  0.233973	  0.118040	  0.038373	
16.1865	  0.235651	  0.124981	  0.038174	
16.249	  0.227531	  0.129944	  0.038936	
16.3115	  0.234697	  0.130504	  0.039657	
16.374	  0.249442	  0.128979	  0.040159	
16.4364	  0.247122	  0.127378	  0.040179	
16.4989	  0.247550	  0.127497	  0.039808	
16.5614	  0.257409	  0.129473	  0.039763	
16.6239	  0.253722	  0.132155	  0.040006	
16.6864	  0.247166	  0.136870	  0.040541	
16.7489	  0.252904	  0.141269	  0.041707	
16.8114	  0.256874	  0.143709	  0.042277	
16.8739	  0.254024	  0.145599	  0.042555	
16.9364	  0.252772	  0.146412	  0.042407	
16.9989	  0.240403	  0.141849	  0.041944	
17.0614	  0.224143	  0.133852	  0.041552	
17.1239	  0.227556	  0.127863	  0.041417	
17.1864	  0.237601	  0.123437	  0.041538	
17.2489	  0.232385	  0.118531	  0.041597	
17.3114	  0.232506	  0.114562	  0.042341	
17.3739	  0.243550	  0.113585	  0.043044	
17.4364	  0.243183	  0.115243	  0.043541	
